{"title":"Cirque Du Soleil Worlds Away 2012 BRRip 720p x264 AAC PRiSTiNE","uid":8221815,"size":556065828,"categoryP":"video","categoryS":"hd___movies","magnet":"?xt=urn:btih:f7ae485643f784576141dffe931832a4a3bc7d47&amp;dn=Cirque+Du+Soleil+Worlds+Away+2012+BRRip+720p+x264+AAC+PRiSTiNE&amp;tr=udp%3A%2F%2Ftracker.openbittorrent.com%3A80&amp;tr=udp%3A%2F%2Fopen.demonii.com%3A1337&amp;tr=udp%3A%2F%2Ftracker.coppersurfer.tk%3A6969&amp;tr=udp%3A%2F%2Fexodus.desync.com%3A6969","seeders":0,"leechers":2,"uploader":"ValidusVyto","files":-1,"time":1362494010,"description":"_________________________  Visit us at _________________________\n  &lt;a href=&quot;\nhttp://p2pdl.com&quot; rel=&quot;nofollow&quot; target=&quot;_NEW&quot;&gt;\nhttp://p2pdl.com&lt;/a&gt;  ____________________________ &lt;a href=&quot; http://p2pdl.com&quot; rel=&quot;nofollow&quot; target=&quot;_NEW&quot;&gt; http://p2pdl.com&lt;/a&gt;\n\n\nCirque Du Soleil Worlds Away 2012 BRRip 720p x264 AAC - PRiSTiNE\n\nGenre: Fantasy\nPlot: A young woman is entranced by an Aerialist. When they fall \ninto the dreamlike world of Cirque du Soleil and are separated, \nthey travel through the different tent worlds trying to find each other.\nDirector: Andrew Adamson\nStars: Erica Linz, Igor Zaripov, Lutz Halbhubner\nRated: Rated PG for some dramatic images and mild sensuality\n\nInfo: &lt;a href=&quot;\nhttp://www.imdb.com/title/tt1386932/&quot; rel=&quot;nofollow&quot; target=&quot;_NEW&quot;&gt;\nhttp://www.imdb.com/title/tt1386932/&lt;/a&gt;\n\nGeneral\nComplete name                  : Cirque Du Soleil Worlds Away 2012 BRRip 720p x264 AAC - PRiSTiNE.mp4\nFormat                         : MPEG-4\nFormat profile                 : Base Media\nFile size                      : 523 MiB\nDuration                       : 1h 31mn\nOverall bit rate mode          : Variable\nOverall bit rate               : 802 Kbps\n\nSource                         : BluRay.720p.DTS.x264-CHD (Thanks)\n\nVideo\nID                             : 1\nFormat                         : AVC\nFormat/Info                    : Advanced Video Codec\nFormat profile                 : High &lt;a class=&quot;__cf_email__&quot; href=&quot;/cdn-cgi/l/email-protection&quot; data-cfemail=&quot;407170000c746e71&quot;&gt;[email&amp;#160;protected]&lt;/a&gt;&lt;script cf-hash='f9e31' type=&quot;text/javascript&quot;&gt;\n/* &lt;![CDATA[ */!function(){try{var t=&quot;currentScript&quot;in document?document.currentScript:function(){for(var t=document.getElementsByTagName(&quot;script&quot;),e=t.length;e--;)if(t[e].getAttribute(&quot;cf-hash&quot;))return t[e]}();if(t&amp;&amp;t.previousSibling){var e,r,n,i,c=t.previousSibling,a=c.getAttribute(&quot;data-cfemail&quot;);if(a){for(e=&quot;&quot;,r=parseInt(a.substr(0,2),16),n=2;a.length-n;n+=2)i=parseInt(a.substr(n,2),16)^r,e+=String.fromCharCode(i);e=document.createTextNode(e),c.parentNode.replaceChild(e,c)}}}catch(u){}}();/* ]]&gt; */&lt;/script&gt;\nDuration                       : 1h 31mn\nBit rate                       : 715 Kbps\nWidth                          : 1 280 pixels\nHeight                         : 720 pixels\nDisplay aspect ratio           : 16:9\nFrame rate mode                : Constant\nFrame rate                     : 23.976 fps\nColor space                    : YUV\nChroma subsampling             : 4:2:0\nBit depth                      : 10 bits\nScan type                      : Progressive\nBits/(Pixel*Frame)             : 0.032\nStream size                    : 466 MiB (89%)\nWriting library                : x264 core 129 r2245 bc13772\n\nAudio\nFormat                         : AAC\nBit rate mode                  : Variable\nBit rate                       : 83.8 Kbps\nChannel(s)                     : 2 channels\nChannel positions              : Front: L R\nSampling rate                  : 48.0 KHz / 24.0 KHz\nStream size                    : 54.7 MiB (10%)\nLanguage                       : English\n\nSubtitle                       : Yes (English)\n\nScreens: &lt;a href=&quot;\nhttp://imgr.us/images/zaw5lwo45kgb1mqgklmp.jpg&quot; rel=&quot;nofollow&quot; target=&quot;_NEW&quot;&gt;\nhttp://imgr.us/images/zaw5lwo45kgb1mqgklmp.jpg&lt;/a&gt; &lt;a href=&quot;\nhttp://imgr.us/images/tx5ek06bbug5us87nzit.jpg&quot; rel=&quot;nofollow&quot; target=&quot;_NEW&quot;&gt;\nhttp://imgr.us/images/tx5ek06bbug5us87nzit.jpg&lt;/a&gt; &lt;a href=&quot;\nhttp://imgr.us/images/kzin09giuro6r06us8o.jpg&quot; rel=&quot;nofollow&quot; target=&quot;_NEW&quot;&gt;\nhttp://imgr.us/images/kzin09giuro6r06us8o.jpg&lt;/a&gt; &lt;a href=&quot;\nhttp://imgr.us/images/pqvjznsl9t3o4do32m6o.jpg&quot; rel=&quot;nofollow&quot; target=&quot;_NEW&quot;&gt;\nhttp://imgr.us/images/pqvjznsl9t3o4do32m6o.jpg&lt;/a&gt;\n\nThumbs: &lt;a href=&quot;\nhttp://imgr.us/images/1g8prmv04gt3coyv2hyz.jpg&quot; rel=&quot;nofollow&quot; target=&quot;_NEW&quot;&gt;\nhttp://imgr.us/images/1g8prmv04gt3coyv2hyz.jpg&lt;/a&gt;\n----------------------------------------------------------------------------------------------------\nEncoded using revolutionary 10bit encoding, which enables us to provide you more crispier \nand sharper images at small sizes, just make sure you follow our instructions without a fault.\nRecommend to you to use latest version of VLC player. Install K-Lite Codec Pack or shark007 codecs\nin case of any kind of problem in playback (For non-VLC Media Player users). Alternatively, install\nCore AVC codecs, the fastest decoder that there is coupled with Community Center Codec Pack and play\non Windows Media Player Classic. Check sample to be sure.\nEnjoy!","torrent":{"xt":"urn:btih:f7ae485643f784576141dffe931832a4a3bc7d47","amp;dn":"Cirque+Du+Soleil+Worlds+Away+2012+BRRip+720p+x264+AAC+PRiSTiNE","amp;tr":["udp%3A%2F%2Ftracker.openbittorrent.com%3A80","udp%3A%2F%2Fopen.demonii.com%3A1337","udp%3A%2F%2Ftracker.coppersurfer.tk%3A6969","udp%3A%2F%2Fexodus.desync.com%3A6969"],"infoHash":"f7ae485643f784576141dffe931832a4a3bc7d47","infoHashBuffer":{"type":"Buffer","data":[247,174,72,86,67,247,132,87,97,65,223,254,147,24,50,164,163,188,125,71]},"announce":[],"urlList":[]}}